PathFileType	4	(X/Y/Z)	/Users/itak/Documents/Research/Walk-IL/dataset/trc/00027_00004.trc
DataRate	CameraRate	NumFrames	NumMarkers	Units	OrigDataRate	OrigDataStartFrame	OrigNumFrames
100.000000	100.000000	4	53	mm	100.000000	383	613
Frame#	Time	RPSI			LPSI			L3			STRN			T10			C7			CLAV			RBAK			LBAK			LSHO			LUPA			LAEL			LAOL			LWTS			LWPS			LFRA			LIFD			LHPS			LHTS			RSHO			RUPA			RAEL			RAOL			RWTS			RWPS			RFRA			RIFD			RHTS			RHPS			RBHD			LFHD			RFHD			LBHD			LHIP			RHIP			RASI			LASI			LKNE			LTHI			LANK			LTIP			LTOE			LMT1			LMT5			LHEE			RKNE			RTHI			RANK			RTIP			RTOE			RMT1			RMT5			RHEE			
		X1	Y1	Z1	X2	Y2	Z2	X3	Y3	Z3	X4	Y4	Z4	X5	Y5	Z5	X6	Y6	Z6	X7	Y7	Z7	X8	Y8	Z8	X9	Y9	Z9	X10	Y10	Z10	X11	Y11	Z11	X12	Y12	Z12	X13	Y13	Z13	X14	Y14	Z14	X15	Y15	Z15	X16	Y16	Z16	X17	Y17	Z17	X18	Y18	Z18	X19	Y19	Z19	X20	Y20	Z20	X21	Y21	Z21	X22	Y22	Z22	X23	Y23	Z23	X24	Y24	Z24	X25	Y25	Z25	X26	Y26	Z26	X27	Y27	Z27	X28	Y28	Z28	X29	Y29	Z29	X30	Y30	Z30	X31	Y31	Z31	X32	Y32	Z32	X33	Y33	Z33	X34	Y34	Z34	X35	Y35	Z35	X36	Y36	Z36	X37	Y37	Z37	X38	Y38	Z38	X39	Y39	Z39	X40	Y40	Z40	X41	Y41	Z41	X42	Y42	Z42	X43	Y43	Z43	X44	Y44	Z44	X45	Y45	Z45	X46	Y46	Z46	X47	Y47	Z47	X48	Y48	Z48	X49	Y49	Z49	X50	Y50	Z50	X51	Y51	Z51	X52	Y52	Z52	X53	Y53	Z53	

384	3.83	-839.017333984375	1060.117065429688	-130.2735595703125	-678.4901733398438	1039.467651367188	-107.2609481811523	-749.0508422851562	1111.920043945312	-123.1301193237305	-770.7859497070312	1295.758544921875	104.2696228027344	-751.5799560546875	1255.464965820312	-140.9538726806641	-733.0201416015625	1520.195190429688	-82.50873565673828	-754.5070190429688	1422.470703125	68.30048370361328	-817.4821166992188	1391.905151367188	-149.6977996826172	-638.6340942382812	1474.043212890625	-96.16056060791016	-571.244140625	1470.050170898438	10.53230381011963	-501.4440612792969	1347.317504882812	-35.39453887939453	-483.0290222167969	1135.375854492188	-79.82035827636719	-575.760498046875	1137.640625	-134.0603485107422	-546.547119140625	869.9224853515625	-51.64244842529297	-505.412353515625	872.574951171875	-130.8828277587891	-479.77099609375	1019.928894042969	-93.10548400878906	-578.8082885742188	684.7030639648438	-74.86544036865234	-512.0723876953125	777.6285400390625	-121.5062255859375	-539.8646240234375	772.8058471679688	-56.13858413696289	-911.00244140625	1514.927001953125	-21.85916519165039	-987.6056518554688	1452.015258789062	-34.20057678222656	-1068.193359375	1192.698486328125	4.958914279937744	-979.3261108398438	1146.063232421875	5.072482585906982	-1032.95556640625	1033.634521484375	249.3516387939453	-1111.695190429688	999.8416748046875	215.4204254150391	-1090.979370117188	1130.846313476562	55.86528396606445	-1038.432250976562	889.2094116210938	369.6325988769531	-1051.052856445312	968.0474853515625	342.7261047363281	-1112.280395507812	942.5848999023438	306.4121704101562	-674.4486694335938	1694.538452148438	-17.24667739868164	-725.6685791015625	1678.818481445312	194.8634948730469	-635.0416259765625	1666.581665039062	157.803466796875	-805.8475341796875	1709.287841796875	41.6077880859375	-588.7606811523438	931.09228515625	10.43224239349365	-958.0913696289062	951.7872314453125	-38.06111145019531	-903.3828735351562	975.8612060546875	79.35580444335938	-669.9638671875	986.2403564453125	109.3230972290039	-679.1005249023438	543.0761108398438	219.2712860107422	-622.3983154296875	648.3849487304688	136.0328826904297	-745.5281982421875	49.31092071533203	251.5133361816406	-694.4345092773438	288.9774475097656	206.1611785888672	-803.1168212890625	104.0248565673828	460.5520324707031	-821.34619140625	96.98593902587891	403.2923889160156	-721.7155151367188	81.21999359130859	369.942138671875	-798.9335327148438	45.79273986816406	184.5346221923828	-933.1669311523438	522.155517578125	-100.6929016113281	-963.0015869140625	786.8868408203125	-43.15582275390625	-882.3123168945312	57.94534683227539	-294.5853576660156	-928.432373046875	403.8872680664062	-151.7242736816406	-919.278076171875	44.94189453125	-63.3110466003418	-872.5567626953125	53.68708801269531	-113.3546981811523	-955.5521850585938	41.02250671386719	-165.0481109619141	-822.2057495117188	67.02540588378906	-331.1686401367188	
385	3.84	-839.9793701171875	1058.76953125	-121.1446151733398	-679.353759765625	1037.864379882812	-98.65480804443359	-749.9696044921875	1110.38525390625	-114.2944641113281	-770.5320434570312	1294.27099609375	113.0011291503906	-752.5975952148438	1253.878173828125	-132.2165222167969	-733.5018310546875	1518.625732421875	-74.014404296875	-754.2965087890625	1420.989501953125	76.97456359863281	-818.4330444335938	1390.414916992188	-140.7100067138672	-639.274658203125	1472.316040039062	-88.19440460205078	-571.232666015625	1468.256958007812	18.10745811462402	-502.0806579589844	1345.29833984375	-28.05005645751953	-484.8087463378906	1133.133422851562	-72.19541931152344	-577.4028930664062	1135.586181640625	-125.967041015625	-549.4475708007812	868.2991943359375	-41.82511138916016	-508.3336181640625	870.0346069335938	-121.1215972900391	-481.7235717773438	1017.513977050781	-84.54511260986328	-583.1260986328125	683.1862182617188	-63.58481216430664	-515.761962890625	775.181884765625	-110.9664535522461	-543.5208129882812	771.1158447265625	-45.57472610473633	-911.2589721679688	1513.515014648438	-12.38041210174561	-987.8710327148438	1450.541381835938	-24.29837989807129	-1067.816162109375	1191.005981445312	14.97029972076416	-978.7689819335938	1144.540283203125	14.30626201629639	-1029.5869140625	1031.724731445312	258.8240661621094	-1108.74462890625	997.8798828125	225.7788391113281	-1089.991821289062	1129.014404296875	66.05429077148438	-1032.902954101562	887.2200317382812	378.632080078125	-1046.318359375	965.934326171875	352.1820983886719	-1108.148681640625	940.5025634765625	316.6737670898438	-674.6954345703125	1693.059692382812	-9.221956253051758	-724.5414428710938	1677.370971679688	203.2330780029297	-634.142578125	1665.16162109375	165.5853271484375	-805.7340698242188	1707.818359375	50.49203872680664	-589.676513671875	929.2863159179688	18.60653877258301	-958.7384643554688	950.6055297851562	-28.70723342895508	-903.833984375	974.3974609375	88.69264984130859	-670.1785278320312	984.6358032226562	117.876594543457	-679.1490478515625	541.5238647460938	225.8113555908203	-623.0548095703125	646.0925903320312	142.6592559814453	-742.3421630859375	50.2067756652832	274.1574096679688	-693.3492431640625	288.2262268066406	219.226806640625	-792.1192626953125	111.5467300415039	483.3072204589844	-812.529541015625	102.7691192626953	427.0057067871094	-714.3369750976562	85.89096069335938	390.4951782226562	-798.10009765625	44.35332107543945	209.3119506835938	-933.5860595703125	521.69921875	-95.10828399658203	-963.3480834960938	785.8350830078125	-35.12136840820312	-882.5206909179688	59.33663558959961	-294.2893371582031	-928.8758544921875	403.8690795898438	-147.4979248046875	-919.3441162109375	44.91685104370117	-63.20720291137695	-872.6560668945312	53.83324813842773	-113.2214584350586	-955.51953125	40.95076370239258	-164.9058380126953	-822.405029296875	68.91381072998047	-330.8284912109375	
386	3.85	-840.7166137695312	1057.428100585938	-111.8768997192383	-680.0030517578125	1036.272583007812	-89.83419799804688	-750.6760864257812	1108.839599609375	-105.262451171875	-770.1431274414062	1292.781982421875	121.8792953491211	-753.4041748046875	1252.255615234375	-123.3011169433594	-733.7840576171875	1517.033081054688	-65.39921569824219	-753.9511108398438	1419.501708984375	85.7823486328125	-819.1644897460938	1388.885864257812	-131.5951995849609	-639.71728515625	1470.557739257812	-80.07095336914062	-571.0515747070312	1466.442260742188	25.84511947631836	-502.5262451171875	1343.258544921875	-20.49055099487305	-486.3318176269531	1130.876098632812	-64.32118988037109	-578.8079833984375	1133.49462890625	-117.6497344970703	-552.0776977539062	866.6842651367188	-31.70639801025391	-510.9768981933594	867.4913940429688	-111.0520324707031	-483.4313049316406	1015.103820800781	-75.72824096679688	-587.0145263671875	681.7041625976562	-51.88369750976562	-519.1533813476562	772.745361328125	-100.0792617797852	-546.8323364257812	769.4635620117188	-34.66139984130859	-911.3380737304688	1512.095336914062	-2.839661121368408	-987.9531860351562	1449.046630859375	-14.37814807891846	-1067.258056640625	1189.277099609375	24.82813835144043	-978.0279541015625	1142.989501953125	23.37122535705566	-1026.1572265625	1029.474731445312	267.9237670898438	-1105.685180664062	995.6114501953125	235.6811676025391	-1088.823608398438	1127.094604492188	76.011474609375	-1027.44970703125	884.6809692382812	387.0704040527344	-1041.61083984375	963.3869018554688	361.1853942871094	-1103.942260742188	937.9846801757812	326.3993530273438	-674.751953125	1691.574829101562	-1.122485160827637	-723.2454833984375	1675.968139648438	211.664306640625	-633.0860595703125	1663.767944335938	173.4408111572266	-805.4281005859375	1706.37451171875	59.41578674316406	-590.3661499023438	927.4691772460938	27.07677459716797	-959.2227783203125	949.4140625	-19.278076171875	-904.1875	972.9273071289062	98.12479400634766	-670.296142578125	983.00048828125	126.6432189941406	-679.1683349609375	539.9583740234375	232.5674285888672	-623.7265014648438	643.8252563476562	149.5727386474609	-738.833984375	51.25043106079102	295.2591552734375	-692.1046142578125	287.5385437011719	231.6502838134766	-780.3483276367188	118.8630523681641	504.32958984375	-803.0069580078125	108.5164260864258	449.11279296875	-706.481689453125	90.38534545898438	409.2864990234375	-796.998046875	43.28826904296875	232.7584075927734	-934.046875	521.2201538085938	-89.22040557861328	-963.6381225585938	784.7951049804688	-26.9288158416748	-882.7863159179688	60.87011337280273	-293.9462585449219	-929.35009765625	403.8136291503906	-142.9700469970703	-919.410400390625	44.8884391784668	-63.09088516235352	-872.7517700195312	53.9975700378418	-113.0633926391602	-955.4943237304688	40.88142395019531	-164.7402038574219	-822.6674194335938	70.98360443115234	-330.4461364746094	
387	3.86	-841.2459716796875	1056.09130859375	-102.4597015380859	-680.4588012695312	1034.695678710938	-80.80959320068359	-751.1842041015625	1107.289428710938	-96.03866577148438	-769.6093139648438	1291.30517578125	130.9165649414062	-754.0067749023438	1250.617309570312	-114.2056121826172	-733.8788452148438	1515.432739257812	-56.65480804443359	-753.457763671875	1418.019287109375	94.73308563232422	-819.685791015625	1387.335693359375	-122.3442153930664	-639.9644775390625	1468.787719726562	-71.78548431396484	-570.7080078125	1464.624389648438	33.75470352172852	-502.7713012695312	1341.214233398438	-12.71004962921143	-487.5794372558594	1128.619140625	-56.17705154418945	-579.9784545898438	1131.3828125	-109.0986328125	-554.4174194335938	865.0914306640625	-21.29630279541016	-513.3404541015625	864.9699096679688	-100.6896286010742	-484.9015197753906	1012.720458984375	-66.65876770019531	-590.399169921875	680.2700805664062	-39.7734375	-522.2152709960938	770.343994140625	-88.86783599853516	-549.776611328125	767.8572998046875	-23.41989898681641	-911.2362060546875	1510.6826171875	6.785029888153076	-987.857666015625	1447.546875	-4.421816825866699	-1066.522216796875	1187.530395507812	34.53996276855469	-977.1101684570312	1141.427856445312	32.27828598022461	-1022.689819335938	1026.893676757812	276.6544494628906	-1102.534423828125	993.0477294921875	245.1293792724609	-1087.490356445312	1125.103881835938	85.73889923095703	-1022.141784667969	881.621826171875	394.9991760253906	-1036.952758789062	960.4132080078125	369.7304992675781	-1099.689575195312	935.040283203125	335.5852966308594	-674.6209716796875	1690.093139648438	7.053989410400391	-721.78076171875	1674.627807617188	220.1606140136719	-631.8626098632812	1662.419189453125	181.3724365234375	-804.9284057617188	1704.962524414062	68.38540649414062	-590.833984375	925.6716918945312	35.82804870605469	-959.5594482421875	948.2210693359375	-9.750953674316406	-904.4351806640625	971.4673461914062	107.6785278320312	-670.3068237304688	981.35546875	135.6238708496094	-679.0565185546875	538.4185791015625	239.5867919921875	-624.3521118164062	641.6459350585938	156.8516693115234	-735.215087890625	52.25297164916992	314.6829223632812	-690.7373046875	286.8358459472656	243.4515686035156	-768.2069091796875	125.5867767333984	523.4993286132812	-793.1182861328125	113.8853149414062	469.4628601074219	-698.4534912109375	94.42183685302734	426.2513122558594	-795.7682495117188	42.49199676513672	254.6634826660156	-934.5562133789062	520.728515625	-83.02313995361328	-963.8807983398438	783.7749633789062	-18.56154441833496	-883.1204223632812	62.56276702880859	-293.5516052246094	-929.8618774414062	403.7314147949219	-138.1427307128906	-919.4757690429688	44.85591506958008	-62.96267318725586	-872.8472290039062	54.18383026123047	-112.8805923461914	-955.478271484375	40.81470108032227	-164.5480651855469	-823.0020141601562	73.25738525390625	-330.0135498046875	
